<?xml version="1.0" encoding="UTF-8" standalone="no"?>
<svg width="25px" height="15px" viewBox="0 0 25 15" version="1.1" xmlns="http://www.w3.org/2000/svg" xmlns:xlink="http://www.w3.org/1999/xlink">
    <!-- Generator: sketchtool 3.8.1 (29687) - http://www.bohemiancoding.com/sketch -->
    <title>ED882B77-412C-4CEF-81EC-661481AA753E</title>
    <desc>Created with sketchtool.</desc>
    <defs></defs>
    <g id="New-Landing-Page" stroke="none" stroke-width="1" fill="none" fill-rule="evenodd">
        <g id="Landing" transform="translate(-1130.000000, -40.000000)" fill="#312D3B">
            <path d="M1130,41.5 C1130,40.6715729 1130.66869,40 1131.50756,40 L1153.49244,40 C1154.32504,40 1155,40.6657972 1155,41.5 C1155,42.3284271 1154.33131,43 1153.49244,43 L1131.50756,43 C1130.67496,43 1130,42.3342028 1130,41.5 Z M1130,47.5 C1130,46.6715729 1130.66544,46 1131.50325,46 L1148.49675,46 C1149.32697,46 1150,46.6657972 1150,47.5 C1150,48.3284271 1149.33456,49 1148.49675,49 L1131.50325,49 C1130.67303,49 1130,48.3342028 1130,47.5 Z M1130,53.5 C1130,52.6715729 1130.66869,52 1131.50756,52 L1153.49244,52 C1154.32504,52 1155,52.6657972 1155,53.5 C1155,54.3284271 1154.33131,55 1153.49244,55 L1131.50756,55 C1130.67496,55 1130,54.3342028 1130,53.5 Z" id="icon_menu"></path>
        </g>
    </g>
</svg>