<?xml version="1.0" encoding="UTF-8" standalone="no"?>
<svg width="316px" height="323px" viewBox="0 0 316 323" version="1.1" xmlns="http://www.w3.org/2000/svg" xmlns:xlink="http://www.w3.org/1999/xlink">
    <!-- Generator: sketchtool 3.8.3 (29802) - http://www.bohemiancoding.com/sketch -->
    <title>A012F718-D7DB-4F53-8D13-D8239E62390E</title>
    <desc>Created with sketchtool.</desc>
    <defs></defs>
    <g id="Landing-Page" stroke="none" stroke-width="1" fill="none" fill-rule="evenodd" opacity="0.25">
        <g id="Desktop-HD" transform="translate(-1100.000000, -589.000000)" fill="#FF7C7C">
            <g id="Group-2" transform="translate(1100.000000, 589.000000)">
                <path d="M163.790236,186.946896 C165.77048,185.764472 168.804902,183.671654 172.498186,176.878156 C172.498186,176.878156 171.842985,187.070216 163.658464,189.42781 C162.208969,188.901885 161.813652,188.114811 163.790236,186.946896 M171.513554,187.581632 C176.84301,180.83166 178.512125,169.939575 165.477653,155.852045 C161.121848,151.271058 159.072057,144.132989 159.072057,144.132989 C159.072057,144.132989 156.403669,151.184008 152.849479,155.293476 C149.295288,159.399317 134.189064,175.837187 148.109338,189.046968 C155.514207,195.220237 166.180438,194.331605 171.513554,187.581632" id="Fill-102"></path>
                <path d="M305.900023,304.819341 C305.900023,309.411208 302.137193,313.139834 297.510523,313.139834 L17.9300647,313.139834 C13.3033945,313.139834 9.54056455,309.411208 9.54056455,304.819341 L9.54056455,286.306787 C9.54056455,281.71492 13.3033945,277.986294 17.9300647,277.986294 L266.18899,277.986294 L266.18899,100.785903 L258.158203,108.500676 C256.807538,109.799166 255.101819,110.520953 253.352176,110.520953 L22.3883593,110.520953 C18.3876072,110.520953 15.126244,107.013578 15.126244,102.693741 L15.126244,17.9436776 C15.126244,13.6310941 18.3876072,10.1273468 22.3883593,10.1273468 L253.352176,10.1273468 C255.808265,10.1273468 258.084997,11.480243 259.442983,13.7507874 L263.399811,20.3846941 L267.528675,13.8523453 C269.003792,11.5201408 271.45256,10.1273468 274.080684,10.1273468 L287.795979,10.1273468 C292.148124,10.1273468 295.687673,13.8668535 295.687673,18.4768565 L295.687673,277.384201 L299.369976,278.211172 C303.213333,279.081669 305.900023,282.404063 305.900023,286.306787 L305.900023,304.819341 Z M68.1828777,139.182042 L229.585586,139.182042 C230.259089,139.182042 230.797159,139.726102 230.797159,140.386228 L230.797159,226.561729 C187.184204,217.639142 153.666467,233.68529 153.666467,233.68529 C114.288525,248.048478 67.0481721,225.48449 67.0481721,225.48449 L66.971305,225.498998 L66.971305,140.386228 C66.971305,139.726102 67.5130354,139.182042 68.1828777,139.182042 L68.1828777,139.182042 Z M39.0063046,247.896141 C39.0063046,248.97338 38.1168418,249.843876 37.0260604,249.843876 L27.2968757,249.843876 C26.2097546,249.843876 25.3239522,248.97338 25.3239522,247.896141 L25.3239522,146.116995 C25.3239522,145.036129 26.2097546,144.158378 27.2968757,144.158378 L37.0260604,144.158378 C38.1168418,144.158378 39.0063046,145.036129 39.0063046,146.116995 L39.0063046,247.896141 Z M305.153313,270.315046 L305.153313,18.4768565 C305.153313,8.69465504 297.367769,0.747749774 287.795979,0.747749774 L274.080684,0.747749774 C270.222685,0.747749774 266.558684,2.04261293 263.590148,4.35305504 C260.709461,2.0353588 257.136968,0.747749774 253.352176,0.747749774 L22.3883593,0.747749774 C13.1643015,0.747749774 5.66060376,8.45526857 5.66060376,17.9436776 L5.66060376,102.693741 C5.66060376,112.174896 13.1643015,119.896923 22.3883593,119.896923 L253.352176,119.896923 C254.494203,119.896923 255.617927,119.773602 256.71969,119.537843 L256.71969,268.60307 L232.667593,268.60307 C237.052681,267.282817 240.26646,263.285789 240.26646,258.527076 L240.26646,140.386228 C240.26646,134.550276 235.475074,129.802445 229.585586,129.802445 L68.1828777,129.802445 C62.29339,129.802445 57.5056648,134.550276 57.5056648,140.386228 L57.5056648,144.132989 L48.2669657,144.132989 C47.3189375,138.826589 42.6520036,134.775154 37.0260604,134.775154 L27.2968757,134.775154 C20.9901092,134.775154 15.858312,139.871184 15.858312,146.116995 L15.858312,247.896141 C15.858312,254.145578 20.9901092,259.230727 27.2968757,259.230727 L37.0260604,259.230727 C43.3401476,259.230727 48.4719448,254.145578 48.4719448,247.896141 L48.4719448,164.734733 L57.5056648,164.734733 L57.5056648,258.527076 C57.5056648,263.285789 60.723104,267.282817 65.1008711,268.60307 L17.9300647,268.60307 C8.08374909,268.60307 0.0749243518,276.546348 0.0749243518,286.306787 L0.0749243518,304.819341 C0.0749243518,314.576153 8.08374909,322.523058 17.9300647,322.523058 L297.510523,322.523058 C307.356838,322.523058 315.365663,314.576153 315.365663,304.819341 L315.365663,286.306787 C315.365663,279.313801 311.317327,273.184057 305.153313,270.315046 L305.153313,270.315046 Z" id="Fill-104"></path>
                <path d="M58.2337065,21.4797059 C57.3113007,20.5584307 55.8105612,20.5584307 54.8918157,21.4797059 L26.4802538,49.629378 C25.557848,50.5470262 25.557848,52.0232427 26.4802538,52.9445179 C26.945117,53.4015284 27.5490732,53.6300337 28.1530293,53.6300337 C28.7606458,53.6300337 29.3682623,53.4015284 29.8294652,52.9445179 L58.2337065,24.7912186 C59.1597726,23.8771976 59.1597726,22.3937269 58.2337065,21.4797059" id="Fill-106"></path>
                <path d="M74.3761736,21.4797059 C73.4537678,20.5584307 71.9530282,20.5584307 71.0342828,21.4797059 L42.6227208,49.629378 C41.7003151,50.5470262 41.7003151,52.0232427 42.6227208,52.9445179 C43.0839237,53.4015284 43.6915402,53.6300337 44.2954964,53.6300337 C44.9031129,53.6300337 45.5070691,53.4015284 45.9682719,52.9445179 L74.3761736,24.7912186 C75.3022397,23.8771976 75.3022397,22.3937269 74.3761736,21.4797059" id="Fill-108"></path>
                <path d="M87.1730895,21.4797059 L58.7651879,49.629378 C57.8391218,50.5470262 57.8391218,52.0232427 58.7651879,52.9445179 C59.2263908,53.4015284 59.830347,53.6300337 60.4379635,53.6300337 C61.04558,53.6300337 61.6458758,53.4015284 62.110739,52.9445179 L90.5186406,24.7912186 C91.4410464,23.8771976 91.4410464,22.3937269 90.5186406,21.4797059 C89.5962349,20.5584307 88.0954953,20.5584307 87.1730895,21.4797059" id="Fill-110"></path>
            </g>
        </g>
    </g>
</svg>