<?xml version="1.0" encoding="UTF-8" standalone="no"?>
<svg width="214px" height="437px" viewBox="0 0 214 437" version="1.1" xmlns="http://www.w3.org/2000/svg" xmlns:xlink="http://www.w3.org/1999/xlink">
    <!-- Generator: sketchtool 3.8.3 (29802) - http://www.bohemiancoding.com/sketch -->
    <title>60E754B6-1B5C-41F1-9563-AEB1C0069884</title>
    <desc>Created with sketchtool.</desc>
    <defs></defs>
    <g id="Landing-Page" stroke="none" stroke-width="1" fill="none" fill-rule="evenodd" opacity="0.25">
        <g id="Background2" transform="translate(-78.000000, -194.000000)" fill="#FF7C7C">
            <g id="Group-3" transform="translate(185.000000, 412.500000) scale(-1, 1) translate(-185.000000, -412.500000) translate(78.000000, 194.000000)">
                <path d="M11.4853837,190.82799 L11.4853837,182.907591 C11.4853837,177.117798 16.2019224,172.400364 21.9916855,172.400364 L192.013022,172.400364 C197.807492,172.400364 202.524031,177.117798 202.524031,182.907591 L202.524031,190.82799 L11.4853837,190.82799 Z M202.524031,405.798145 C202.524031,411.587937 197.807492,416.295965 192.013022,416.295965 L21.9916855,416.295965 C16.2019224,416.295965 11.4853837,411.587937 11.4853837,405.798145 L11.4853837,193.687611 L202.524031,193.687611 L202.524031,405.798145 Z M22.5282977,11.7300916 L191.466995,11.7300916 C197.4168,11.7300916 202.255724,16.5698126 202.255724,22.5101116 L202.255724,124.562849 L11.7442756,124.562849 L11.7442756,22.5101116 C11.7442756,16.5698126 16.5831995,11.7300916 22.5282977,11.7300916 L22.5282977,11.7300916 Z M11.7442756,127.417767 L202.255724,127.417767 L202.255724,130.597215 C202.255724,136.53281 197.4168,141.372531 191.466995,141.372531 L22.5282977,141.372531 C16.5831995,141.372531 11.7442756,136.53281 11.7442756,130.597215 L11.7442756,127.417767 Z M214,130.597215 L214,22.5101116 C214,10.1027413 203.893804,0 191.466995,0 L22.5282977,0 C10.1109034,0 0,10.1027413 0,22.5101116 L0,130.597215 C0,137.868554 3.48327211,144.321516 8.84939401,148.446332 L8.84939401,165.354784 C3.51151486,169.371423 0.0282427468,175.725614 0.0282427468,182.907591 L0.0282427468,405.798145 C0.0282427468,413.958413 4.53296087,421.093356 11.1747135,424.870126 C14.0036953,432.127356 19.1627037,437 25.0842663,437 L188.911027,437 C194.827882,437 199.991598,432.127356 202.820579,424.870126 C209.471746,421.093356 213.976464,413.963116 213.976464,405.798145 L213.976464,182.907591 C213.976464,175.725614 210.497899,169.366719 205.155313,165.354784 L205.155313,148.441628 C210.516728,144.321516 214,137.868554 214,130.597215 L214,130.597215 Z" id="Fill-3"></path>
                <path d="M26.745107,115 C28.8637736,115 30.5714286,113.653159 30.5714286,111.985641 L30.5714286,33.6856067 C30.5714286,32.0272512 28.8637736,30.6666667 26.745107,30.6666667 C24.6411194,30.6666667 22.9285714,32.0272512 22.9285714,33.6856067 L22.9285714,111.985641 C22.9285714,113.653159 24.6411194,115 26.745107,115" id="Fill-5"></path>
                <path d="M27.914789,207 L86.7377034,207 C89.4885538,207 91.7142857,205.281865 91.7142857,203.162956 C91.7142857,201.044046 89.4885538,199.333333 86.7377034,199.333333 L27.914789,199.333333 C25.1639385,199.333333 22.9285714,201.044046 22.9285714,203.162956 C22.9285714,205.281865 25.1639385,207 27.914789,207" id="Fill-7"></path>
            </g>
        </g>
    </g>
</svg>