<?xml version="1.0" encoding="UTF-8" standalone="no"?>
<svg width="84px" height="96px" viewBox="0 0 84 96" version="1.1" xmlns="http://www.w3.org/2000/svg" xmlns:xlink="http://www.w3.org/1999/xlink">
    <!-- Generator: Sketch 3.8.1 (29687) - http://www.bohemiancoding.com/sketch -->
    <title>icon2</title>
    <desc>Created with Sketch.</desc>
    <defs></defs>
    <g id="Landing-Page" stroke="none" stroke-width="1" fill="none" fill-rule="evenodd">
        <g id="Desktop-HD-Copy" transform="translate(-678.000000, -1035.000000)" fill="#FF7C7C">
            <path d="M747,1059 C743.805,1059 741,1053.195 741,1050.078 L741,1041.093 L741,1041.087 L756,1059 L747,1059 L747,1059 Z M756,1107 C756,1110.057 753.15,1113 750,1113 L705,1113 C701.85,1113 699,1110.057 699,1107 L699,1047 C699,1043.943 701.85,1041 705,1041 L735,1041 C734.952,1047.912 735,1053.075 735,1053.075 C735,1059.309 740.61,1065 747,1065 L756,1065 L756,1107 L756,1107 Z M735,1125 L690,1125 C686.85,1125 684,1122.057 684,1119 L684,1059 C684,1055.943 686.565,1053.096 689.715,1053.096 L693,1053 L693,1107 C693,1113.177 698.652,1119 705,1119 L741,1119 C741,1122.057 738.147,1125 735,1125 L735,1125 Z M741,1035 L705,1035 C698.652,1035 693,1040.823 693,1047 L689.535,1047.081 C683.187,1047.081 678,1052.823 678,1059 L678,1119 C678,1125.177 683.652,1131 690,1131 L735,1131 C741.348,1131 747,1125.177 747,1119 L750,1119 C756.348,1119 762,1113.177 762,1107 L762,1059.069 L741,1035 L741,1035 Z M741,1077.054 L714,1077.054 C712.344,1077.054 711,1078.395 711,1080.051 C711,1081.704 712.344,1083.048 714,1083.048 L741,1083.048 C742.656,1083.048 744,1081.704 744,1080.051 C744,1078.395 742.656,1077.054 741,1077.054 L741,1077.054 Z M741,1092.039 L714,1092.039 C712.344,1092.039 711,1093.38 711,1095.036 C711,1096.689 712.344,1098.033 714,1098.033 L741,1098.033 C742.656,1098.033 744,1096.689 744,1095.036 C744,1093.38 742.656,1092.039 741,1092.039 L741,1092.039 Z" id="icon2"></path>
        </g>
    </g>
</svg>