<?xml version="1.0" encoding="UTF-8" standalone="no"?>
<svg width="96px" height="96px" viewBox="0 0 96 96" version="1.1" xmlns="http://www.w3.org/2000/svg" xmlns:xlink="http://www.w3.org/1999/xlink">
    <!-- Generator: Sketch 3.8.1 (29687) - http://www.bohemiancoding.com/sketch -->
    <title>icon3</title>
    <desc>Created with Sketch.</desc>
    <defs></defs>
    <g id="Landing-Page" stroke="none" stroke-width="1" fill="none" fill-rule="evenodd">
        <g id="Desktop-HD-Copy" transform="translate(-990.000000, -1035.000000)" fill="#FF7C7C">
            <path d="M1074,1098 C1074,1101.687 1071.618,1104 1068,1104 L1008,1104 C1004.382,1104 1002,1101.687 1002,1098 C1002,1098 1001.955,1044.771 1001.955,1040.97 L1074.045,1040.97 C1074.045,1047.021 1074,1098 1074,1098 L1074,1098 Z M990,1035 L990,1041 L996,1041 L996,1098 C996,1105.11 1000.932,1110 1008,1110 L1026,1110 L1014,1131 L1023.036,1130.961 L1035,1110 L1041,1110 L1052.964,1130.961 L1062,1131 L1050,1110 L1068,1110 C1075.068,1110 1080,1105.11 1080,1098 L1080,1041 L1086,1041 L1086,1035 L990,1035 L990,1035 Z M1020,1095 C1021.659,1095 1023,1093.659 1023,1092 L1023,1080 C1023,1078.344 1021.659,1077 1020,1077 C1018.341,1077 1017,1078.344 1017,1080 L1017,1092 C1017,1093.659 1018.341,1095 1020,1095 L1020,1095 Z M1056,1095 C1057.659,1095 1059,1093.659 1059,1092 L1059,1065 C1059,1063.344 1057.659,1062 1056,1062 C1054.341,1062 1053,1063.344 1053,1065 L1053,1092 C1053,1093.659 1054.341,1095 1056,1095 L1056,1095 Z M1038,1095 C1039.659,1095 1041,1093.659 1041,1092 L1041,1056 C1041,1054.344 1039.659,1053 1038,1053 C1036.341,1053 1035,1054.344 1035,1056 L1035,1092 C1035,1093.659 1036.341,1095 1038,1095 L1038,1095 Z" id="icon3"></path>
        </g>
    </g>
</svg>