<?xml version="1.0" encoding="UTF-8" standalone="no"?>
<svg width="96px" height="96px" viewBox="0 0 96 96" version="1.1" xmlns="http://www.w3.org/2000/svg" xmlns:xlink="http://www.w3.org/1999/xlink">
    <!-- Generator: Sketch 3.8.1 (29687) - http://www.bohemiancoding.com/sketch -->
    <title>icon1</title>
    <desc>Created with Sketch.</desc>
    <defs></defs>
    <g id="Landing-Page" stroke="none" stroke-width="1" fill="none" fill-rule="evenodd">
        <g id="Desktop-HD-Copy" transform="translate(-342.000000, -1035.000000)" fill="#FF7C7C">
            <path d="M408,1113 C411.312,1113 414,1115.688 414,1119 C414,1122.312 411.312,1125 408,1125 C404.688,1125 402,1122.312 402,1119 C402,1115.688 404.688,1113 408,1113 L408,1113 Z M396,1119 C396,1125.627 401.373,1131 408,1131 C414.627,1131 420,1125.627 420,1119 C420,1112.373 414.627,1107 408,1107 C401.373,1107 396,1112.373 396,1119 L396,1119 Z M360,1053 L432,1053 L424.329,1083.687 L360,1089 L360,1053 L360,1053 Z M366,1101 C362.688,1101 360,1098.312 360,1095 L429,1089 C429,1089 438,1052.625 438,1050 C438,1048.341 436.659,1047 435,1047 L360,1047 L360,1041 L363,1041 C364.659,1041 366,1039.659 366,1038 C366,1036.344 364.659,1035 363,1035 L345,1035 C343.341,1035 342,1036.344 342,1038 C342,1039.659 343.341,1041 345,1041 L354,1041 L354,1095 C354,1101.627 359.373,1107 366,1107 L435,1107 C435.093,1107 435,1104.027 435,1101 L366,1101 L366,1101 Z M372,1113 C375.312,1113 378,1115.688 378,1119 C378,1122.312 375.312,1125 372,1125 C368.688,1125 366,1122.312 366,1119 C366,1115.688 368.688,1113 372,1113 L372,1113 Z M360,1119 C360,1125.627 365.373,1131 372,1131 C378.627,1131 384,1125.627 384,1119 C384,1112.373 378.627,1107 372,1107 C365.373,1107 360,1112.373 360,1119 L360,1119 Z" id="icon1"></path>
        </g>
    </g>
</svg>