<?xml version="1.0" encoding="UTF-8" standalone="no"?>
<svg width="192px" height="201px" viewBox="0 0 192 201" version="1.1" xmlns="http://www.w3.org/2000/svg" xmlns:xlink="http://www.w3.org/1999/xlink">
    <!-- Generator: sketchtool 3.8.3 (29802) - http://www.bohemiancoding.com/sketch -->
    <title>567560E5-F470-4124-B5A1-11D1637D620D</title>
    <desc>Created with sketchtool.</desc>
    <defs></defs>
    <g id="Landing-Page" stroke="none" stroke-width="1" fill="none" fill-rule="evenodd" opacity="0.25">
        <g id="Desktop-HD" transform="translate(-861.000000, -524.000000)" fill="#FF7C7C">
            <g id="Group-2" transform="translate(861.000000, 524.000000)">
                <path d="M170.268937,188.539668 C170.268937,190.511086 168.665884,192.114301 166.6927,192.114301 L12.1002263,192.114301 C10.1347,192.114301 8.53164737,190.511086 8.53164737,188.539668 L8.53164737,62.5351367 C8.53164737,60.5586051 10.1347,58.9579468 12.1002263,58.9579468 L166.6927,58.9579468 C168.665884,58.9579468 170.268937,60.5586051 170.268937,62.5351367 L170.268937,188.539668 Z M183.874463,75.6830354 L183.384358,75.6830354 C181.416279,75.6830354 179.644753,76.4475671 178.299516,77.6825797 L178.299516,62.5351367 C178.299516,56.1248329 173.092147,50.9137443 166.6927,50.9137443 L166.588042,50.9137443 C166.656963,50.5762253 166.6927,50.2284785 166.6927,49.8756177 C166.6927,47.0808582 164.433621,44.8128329 161.643595,44.8128329 L156.089068,44.8128329 C155.177779,44.8128329 154.335411,45.073643 153.600253,45.4955418 L4.27385789,0.743592405 C2.84693684,0.319136709 1.36130526,1.12713671 0.940121053,2.54113671 C0.516384211,3.96025063 1.32046316,5.45351646 2.73462105,5.87797215 L151.085911,50.3409848 C151.103779,50.532757 151.111437,50.729643 151.147174,50.9137443 L12.1002263,50.9137443 C5.70588421,50.9137443 0.501068421,56.1248329 0.501068421,62.5351367 L0.501068421,188.539668 C0.501068421,194.944858 5.70588421,200.158504 12.1002263,200.158504 L166.6927,200.158504 C173.092147,200.158504 178.299516,194.944858 178.299516,188.539668 L178.299516,115.694377 C179.644753,116.921719 181.416279,117.691365 183.384358,117.691365 L183.874463,117.691365 C188.063332,117.691365 191.460884,114.288048 191.460884,110.089516 L191.460884,83.2848835 C191.460884,79.0837949 188.063332,75.6830354 183.874463,75.6830354 L183.874463,75.6830354 Z" id="Fill-269"></path>
                <path d="M134.679126,84.3135494 L134.679126,169.324866 C134.679126,173.520841 138.074126,176.924157 142.262995,176.924157 L145.466547,176.924157 L145.466547,167.442942 L142.569311,167.442942 C141.749916,167.442942 141.086232,166.778132 141.086232,165.962461 C141.086232,165.141676 141.749916,164.479423 142.569311,164.479423 L145.466547,164.479423 L145.466547,157.900359 L142.569311,157.900359 C141.749916,157.900359 141.086232,157.238106 141.086232,156.412208 C141.086232,155.596537 141.749916,154.92917 142.569311,154.92917 L145.466547,154.92917 L145.466547,148.35522 L142.569311,148.35522 C141.749916,148.35522 141.086232,147.685296 141.086232,146.864511 C141.086232,146.051397 141.749916,145.381473 142.569311,145.381473 L145.466547,145.381473 L145.466547,138.80241 L142.569311,138.80241 C141.749916,138.80241 141.086232,138.140157 141.086232,137.324486 C141.086232,136.498587 141.749916,135.836334 142.569311,135.836334 L145.466547,135.836334 L145.466547,129.257271 L142.569311,129.257271 C141.749916,129.257271 141.086232,128.592461 141.086232,127.771676 C141.086232,126.953448 141.749916,126.288638 142.569311,126.288638 L145.466547,126.288638 L145.466547,119.712132 L142.569311,119.712132 C141.749916,119.712132 141.086232,119.047322 141.086232,118.226537 C141.086232,117.403195 141.749916,116.743499 142.569311,116.743499 L145.466547,116.743499 L145.466547,110.161878 L142.569311,110.161878 C141.749916,110.161878 141.086232,109.499625 141.086232,108.678841 C141.086232,107.855499 141.749916,107.193246 142.569311,107.193246 L145.466547,107.193246 L145.466547,100.614182 L142.569311,100.614182 C141.749916,100.614182 141.086232,99.9493722 141.086232,99.1311443 C141.086232,98.3103595 141.749916,97.6481063 142.569311,97.6481063 L145.466547,97.6481063 L145.466547,91.069043 L142.569311,91.069043 C141.749916,91.069043 141.086232,90.4042329 141.086232,89.5860051 C141.086232,88.7626633 141.749916,88.1029671 142.569311,88.1029671 L145.466547,88.1029671 L145.466547,76.7117013 L142.262995,76.7117013 C138.074126,76.7117013 134.679126,80.1150177 134.679126,84.3135494" id="Fill-270"></path>
                <path d="M151.341174,76.7127241 L148.142726,76.7127241 L148.142726,88.1014329 L151.039963,88.1014329 C151.856805,88.1014329 152.525595,88.7636861 152.525595,89.5844709 C152.525595,90.4026987 151.856805,91.0675089 151.039963,91.0675089 L148.142726,91.0675089 L148.142726,97.6491291 L151.039963,97.6491291 C151.856805,97.6491291 152.525595,98.3088253 152.525595,99.1321671 C152.525595,99.9503949 151.856805,100.615205 151.039963,100.615205 L148.142726,100.615205 L148.142726,107.194268 L151.039963,107.194268 C151.856805,107.194268 152.525595,107.856522 152.525595,108.679863 C152.525595,109.498091 151.856805,110.162901 151.039963,110.162901 L148.142726,110.162901 L148.142726,116.741965 L151.039963,116.741965 C151.856805,116.741965 152.525595,117.404218 152.525595,118.225003 C152.525595,119.048344 151.856805,119.710597 151.039963,119.710597 L148.142726,119.710597 L148.142726,126.289661 L151.039963,126.289661 C151.856805,126.289661 152.525595,126.951914 152.525595,127.772699 C152.525595,128.593484 151.856805,129.258294 151.039963,129.258294 L148.142726,129.258294 L148.142726,135.837357 L151.039963,135.837357 C151.856805,135.837357 152.525595,136.49961 152.525595,137.322952 C152.525595,138.138623 151.856805,138.800876 151.039963,138.800876 L148.142726,138.800876 L148.142726,145.379939 L151.039963,145.379939 C151.856805,145.379939 152.525595,146.049863 152.525595,146.862977 C152.525595,147.686319 151.856805,148.353686 151.039963,148.353686 L148.142726,148.353686 L148.142726,154.930192 L151.039963,154.930192 C151.856805,154.930192 152.525595,155.597559 152.525595,156.41323 C152.525595,157.236572 151.856805,157.901382 151.039963,157.901382 L148.142726,157.901382 L148.142726,164.477889 L151.039963,164.477889 C151.856805,164.477889 152.525595,165.142699 152.525595,165.960927 C152.525595,166.779154 151.856805,167.441408 151.039963,167.441408 L148.142726,167.441408 L148.142726,176.922623 L151.341174,176.922623 C155.535147,176.922623 158.930147,173.519306 158.930147,169.325889 L158.930147,84.3145722 C158.930147,80.1160405 155.535147,76.7127241 151.341174,76.7127241" id="Fill-271"></path>
                <path d="M34.8048632,85.3447722 C32.4028368,85.3447722 30.4577316,87.2957342 30.4577316,89.6992785 C30.4577316,92.1079367 32.4028368,94.0537848 34.8048632,94.0537848 C37.2068895,94.0537848 39.1545474,92.1079367 39.1545474,89.6992785 C39.1545474,87.2957342 37.2068895,85.3447722 34.8048632,85.3447722" id="Fill-272"></path>
                <path d="M50.0233974,85.3447722 C47.6239237,85.3447722 45.6762658,87.2957342 45.6762658,89.6992785 C45.6762658,92.1079367 47.6239237,94.0537848 50.0233974,94.0537848 C52.4254237,94.0537848 54.3730816,92.1079367 54.3730816,89.6992785 C54.3730816,87.2957342 52.4254237,85.3447722 50.0233974,85.3447722" id="Fill-273"></path>
                <path d="M65.2444842,85.3447722 C62.8424579,85.3447722 60.8948,87.2957342 60.8948,89.6992785 C60.8948,92.1079367 62.8424579,94.0537848 65.2444842,94.0537848 C67.6439579,94.0537848 69.5916158,92.1079367 69.5916158,89.6992785 C69.5916158,87.2957342 67.6439579,85.3447722 65.2444842,85.3447722" id="Fill-274"></path>
                <path d="M80.4630184,85.3447722 C78.0609921,85.3447722 76.1133342,87.2957342 76.1133342,89.6992785 C76.1133342,92.1079367 78.0609921,94.0537848 80.4630184,94.0537848 C82.8650447,94.0537848 84.8075974,92.1079367 84.8075974,89.6992785 C84.8075974,87.2957342 82.8650447,85.3447722 80.4630184,85.3447722" id="Fill-275"></path>
                <path d="M95.6792553,85.3447722 C93.2797816,85.3447722 91.3346763,87.2957342 91.3346763,89.6992785 C91.3346763,92.1079367 93.2797816,94.0537848 95.6792553,94.0537848 C98.0838342,94.0537848 100.028939,92.1079367 100.028939,89.6992785 C100.028939,87.2957342 98.0838342,85.3447722 95.6792553,85.3447722" id="Fill-276"></path>
                <path d="M110.900342,85.3447722 C108.498316,85.3447722 106.548105,87.2957342 106.548105,89.6992785 C106.548105,92.1079367 108.498316,94.0537848 110.900342,94.0537848 C113.299816,94.0537848 115.247474,92.1079367 115.247474,89.6992785 C115.247474,87.2957342 113.299816,85.3447722 110.900342,85.3447722" id="Fill-277"></path>
                <path d="M34.8048632,100.089749 C32.4028368,100.089749 30.4577316,102.038154 30.4577316,104.444256 C30.4577316,106.850357 32.4028368,108.798762 34.8048632,108.798762 C37.2068895,108.798762 39.1545474,106.850357 39.1545474,104.444256 C39.1545474,102.038154 37.2068895,100.089749 34.8048632,100.089749" id="Fill-278"></path>
                <path d="M50.0233974,100.089749 C47.6239237,100.089749 45.6762658,102.038154 45.6762658,104.444256 C45.6762658,106.850357 47.6239237,108.798762 50.0233974,108.798762 C52.4254237,108.798762 54.3730816,106.850357 54.3730816,104.444256 C54.3730816,102.038154 52.4254237,100.089749 50.0233974,100.089749" id="Fill-279"></path>
                <path d="M65.2444842,100.089749 C62.8424579,100.089749 60.8948,102.038154 60.8948,104.444256 C60.8948,106.850357 62.8424579,108.798762 65.2444842,108.798762 C67.6439579,108.798762 69.5916158,106.850357 69.5916158,104.444256 C69.5916158,102.038154 67.6439579,100.089749 65.2444842,100.089749" id="Fill-280"></path>
                <path d="M80.4630184,100.089749 C78.0609921,100.089749 76.1133342,102.038154 76.1133342,104.444256 C76.1133342,106.850357 78.0609921,108.798762 80.4630184,108.798762 C82.8650447,108.798762 84.8075974,106.850357 84.8075974,104.444256 C84.8075974,102.038154 82.8650447,100.089749 80.4630184,100.089749" id="Fill-281"></path>
                <path d="M95.6792553,100.089749 C93.2797816,100.089749 91.3346763,102.038154 91.3346763,104.444256 C91.3346763,106.850357 93.2797816,108.798762 95.6792553,108.798762 C98.0838342,108.798762 100.028939,106.850357 100.028939,104.444256 C100.028939,102.038154 98.0838342,100.089749 95.6792553,100.089749" id="Fill-282"></path>
                <path d="M110.900342,100.089749 C108.498316,100.089749 106.548105,102.038154 106.548105,104.444256 C106.548105,106.850357 108.498316,108.798762 110.900342,108.798762 C113.299816,108.798762 115.247474,106.850357 115.247474,104.444256 C115.247474,102.038154 113.299816,100.089749 110.900342,100.089749" id="Fill-283"></path>
                <path d="M34.8048632,114.832425 C32.4028368,114.832425 30.4577316,116.783387 30.4577316,119.189489 C30.4577316,121.593033 32.4028368,123.543995 34.8048632,123.543995 C37.2068895,123.543995 39.1545474,121.593033 39.1545474,119.189489 C39.1545474,116.783387 37.2068895,114.832425 34.8048632,114.832425" id="Fill-284"></path>
                <path d="M50.0233974,114.832425 C47.6239237,114.832425 45.6762658,116.783387 45.6762658,119.189489 C45.6762658,121.593033 47.6239237,123.543995 50.0233974,123.543995 C52.4254237,123.543995 54.3730816,121.593033 54.3730816,119.189489 C54.3730816,116.783387 52.4254237,114.832425 50.0233974,114.832425" id="Fill-285"></path>
                <path d="M65.2444842,114.832425 C62.8424579,114.832425 60.8948,116.783387 60.8948,119.189489 C60.8948,121.593033 62.8424579,123.543995 65.2444842,123.543995 C67.6439579,123.543995 69.5916158,121.593033 69.5916158,119.189489 C69.5916158,116.783387 67.6439579,114.832425 65.2444842,114.832425" id="Fill-286"></path>
                <path d="M80.4630184,114.832425 C78.0609921,114.832425 76.1133342,116.783387 76.1133342,119.189489 C76.1133342,121.593033 78.0609921,123.543995 80.4630184,123.543995 C82.8650447,123.543995 84.8075974,121.593033 84.8075974,119.189489 C84.8075974,116.783387 82.8650447,114.832425 80.4630184,114.832425" id="Fill-287"></path>
                <path d="M95.6792553,114.832425 C93.2797816,114.832425 91.3346763,116.783387 91.3346763,119.189489 C91.3346763,121.593033 93.2797816,123.543995 95.6792553,123.543995 C98.0838342,123.543995 100.028939,121.593033 100.028939,119.189489 C100.028939,116.783387 98.0838342,114.832425 95.6792553,114.832425" id="Fill-288"></path>
                <path d="M110.900342,114.832425 C108.498316,114.832425 106.548105,116.783387 106.548105,119.189489 C106.548105,121.593033 108.498316,123.543995 110.900342,123.543995 C113.299816,123.543995 115.247474,121.593033 115.247474,119.189489 C115.247474,116.783387 113.299816,114.832425 110.900342,114.832425" id="Fill-289"></path>
                <path d="M34.8048632,129.579704 C32.4028368,129.579704 30.4577316,131.528109 30.4577316,133.93421 C30.4577316,136.337754 32.4028368,138.288716 34.8048632,138.288716 C37.2068895,138.288716 39.1545474,136.337754 39.1545474,133.93421 C39.1545474,131.528109 37.2068895,129.579704 34.8048632,129.579704" id="Fill-290"></path>
                <path d="M50.0233974,129.579704 C47.6239237,129.579704 45.6762658,131.528109 45.6762658,133.93421 C45.6762658,136.337754 47.6239237,138.288716 50.0233974,138.288716 C52.4254237,138.288716 54.3730816,136.337754 54.3730816,133.93421 C54.3730816,131.528109 52.4254237,129.579704 50.0233974,129.579704" id="Fill-291"></path>
                <path d="M65.2444842,129.579704 C62.8424579,129.579704 60.8948,131.528109 60.8948,133.93421 C60.8948,136.337754 62.8424579,138.288716 65.2444842,138.288716 C67.6439579,138.288716 69.5916158,136.337754 69.5916158,133.93421 C69.5916158,131.528109 67.6439579,129.579704 65.2444842,129.579704" id="Fill-292"></path>
                <path d="M80.4630184,129.579704 C78.0609921,129.579704 76.1133342,131.528109 76.1133342,133.93421 C76.1133342,136.337754 78.0609921,138.288716 80.4630184,138.288716 C82.8650447,138.288716 84.8075974,136.337754 84.8075974,133.93421 C84.8075974,131.528109 82.8650447,129.579704 80.4630184,129.579704" id="Fill-293"></path>
                <path d="M95.6792553,129.579704 C93.2797816,129.579704 91.3346763,131.528109 91.3346763,133.93421 C91.3346763,136.337754 93.2797816,138.288716 95.6792553,138.288716 C98.0838342,138.288716 100.028939,136.337754 100.028939,133.93421 C100.028939,131.528109 98.0838342,129.579704 95.6792553,129.579704" id="Fill-294"></path>
                <path d="M110.900342,129.579704 C108.498316,129.579704 106.548105,131.528109 106.548105,133.93421 C106.548105,136.337754 108.498316,138.288716 110.900342,138.288716 C113.299816,138.288716 115.247474,136.337754 115.247474,133.93421 C115.247474,131.528109 113.299816,129.579704 110.900342,129.579704" id="Fill-295"></path>
                <path d="M34.8048632,144.324681 C32.4028368,144.324681 30.4577316,146.273086 30.4577316,148.67663 C30.4577316,151.082732 32.4028368,153.031137 34.8048632,153.031137 C37.2068895,153.031137 39.1545474,151.082732 39.1545474,148.67663 C39.1545474,146.273086 37.2068895,144.324681 34.8048632,144.324681" id="Fill-296"></path>
                <path d="M50.0233974,144.324681 C47.6239237,144.324681 45.6762658,146.273086 45.6762658,148.67663 C45.6762658,151.082732 47.6239237,153.031137 50.0233974,153.031137 C52.4254237,153.031137 54.3730816,151.082732 54.3730816,148.67663 C54.3730816,146.273086 52.4254237,144.324681 50.0233974,144.324681" id="Fill-297"></path>
                <path d="M65.2444842,144.324681 C62.8424579,144.324681 60.8948,146.273086 60.8948,148.67663 C60.8948,151.082732 62.8424579,153.031137 65.2444842,153.031137 C67.6439579,153.031137 69.5916158,151.082732 69.5916158,148.67663 C69.5916158,146.273086 67.6439579,144.324681 65.2444842,144.324681" id="Fill-298"></path>
                <path d="M80.4630184,144.324681 C78.0609921,144.324681 76.1133342,146.273086 76.1133342,148.67663 C76.1133342,151.082732 78.0609921,153.031137 80.4630184,153.031137 C82.8650447,153.031137 84.8075974,151.082732 84.8075974,148.67663 C84.8075974,146.273086 82.8650447,144.324681 80.4630184,144.324681" id="Fill-299"></path>
                <path d="M95.6792553,144.324681 C93.2797816,144.324681 91.3346763,146.273086 91.3346763,148.67663 C91.3346763,151.082732 93.2797816,153.031137 95.6792553,153.031137 C98.0838342,153.031137 100.028939,151.082732 100.028939,148.67663 C100.028939,146.273086 98.0838342,144.324681 95.6792553,144.324681" id="Fill-300"></path>
                <path d="M110.900342,144.324681 C108.498316,144.324681 106.548105,146.273086 106.548105,148.67663 C106.548105,151.082732 108.498316,153.031137 110.900342,153.031137 C113.299816,153.031137 115.247474,151.082732 115.247474,148.67663 C115.247474,146.273086 113.299816,144.324681 110.900342,144.324681" id="Fill-301"></path>
                <path d="M34.8048632,159.067357 C32.4028368,159.067357 30.4577316,161.018319 30.4577316,163.421863 C30.4577316,165.827965 32.4028368,167.778927 34.8048632,167.778927 C37.2068895,167.778927 39.1545474,165.827965 39.1545474,163.421863 C39.1545474,161.018319 37.2068895,159.067357 34.8048632,159.067357" id="Fill-302"></path>
                <path d="M50.0233974,159.067357 C47.6239237,159.067357 45.6762658,161.018319 45.6762658,163.421863 C45.6762658,165.827965 47.6239237,167.778927 50.0233974,167.778927 C52.4254237,167.778927 54.3730816,165.827965 54.3730816,163.421863 C54.3730816,161.018319 52.4254237,159.067357 50.0233974,159.067357" id="Fill-303"></path>
                <path d="M65.2444842,159.067357 C62.8424579,159.067357 60.8948,161.018319 60.8948,163.421863 C60.8948,165.827965 62.8424579,167.778927 65.2444842,167.778927 C67.6439579,167.778927 69.5916158,165.827965 69.5916158,163.421863 C69.5916158,161.018319 67.6439579,159.067357 65.2444842,159.067357" id="Fill-304"></path>
                <path d="M80.4630184,159.067357 C78.0609921,159.067357 76.1133342,161.018319 76.1133342,163.421863 C76.1133342,165.827965 78.0609921,167.778927 80.4630184,167.778927 C82.8650447,167.778927 84.8075974,165.827965 84.8075974,163.421863 C84.8075974,161.018319 82.8650447,159.067357 80.4630184,159.067357" id="Fill-305"></path>
                <path d="M95.6792553,159.067357 C93.2797816,159.067357 91.3346763,161.018319 91.3346763,163.421863 C91.3346763,165.827965 93.2797816,167.778927 95.6792553,167.778927 C98.0838342,167.778927 100.028939,165.827965 100.028939,163.421863 C100.028939,161.018319 98.0838342,159.067357 95.6792553,159.067357" id="Fill-306"></path>
                <path d="M110.900342,159.067357 C108.498316,159.067357 106.548105,161.018319 106.548105,163.421863 C106.548105,165.827965 108.498316,167.778927 110.900342,167.778927 C113.299816,167.778927 115.247474,165.827965 115.247474,163.421863 C115.247474,161.018319 113.299816,159.067357 110.900342,159.067357" id="Fill-307"></path>
            </g>
        </g>
    </g>
</svg>