<?xml version="1.0" encoding="UTF-8" standalone="no"?>
<svg width="240px" height="161px" viewBox="0 0 240 161" version="1.1" xmlns="http://www.w3.org/2000/svg" xmlns:xlink="http://www.w3.org/1999/xlink">
    <!-- Generator: sketchtool 3.8.3 (29802) - http://www.bohemiancoding.com/sketch -->
    <title>B84AFAB7-AD00-453F-89C3-D17E14BD74BB</title>
    <desc>Created with sketchtool.</desc>
    <defs></defs>
    <g id="Landing-Page" stroke="none" stroke-width="1" fill="none" fill-rule="evenodd" opacity="0.25">
        <g id="Background2" transform="translate(-163.000000, -669.000000)" fill="#FF7C7C">
            <path d="M392.946495,801.889592 C392.946495,804.237761 387.990414,806.856425 381.356243,806.856425 L184.640749,806.856425 C178.009586,806.856425 173.053505,804.237761 173.053505,801.889592 L173.053505,726.244496 L236.835975,676.793031 L381.356243,676.793031 C387.990414,676.793031 392.946495,679.41869 392.946495,681.762195 L392.946495,801.889592 L392.946495,801.889592 Z M184.640749,676.793031 L197.623395,676.793031 L173.053505,695.841883 L173.053505,681.762195 C173.053505,679.41869 178.009586,676.793031 184.640749,676.793031 L184.640749,676.793031 Z M184.640749,669 C172.509179,669 163,674.603427 163,681.762195 L163,801.889592 C163,809.043697 172.509179,814.654119 184.640749,814.654119 L257.394086,814.654119 L257.394086,823.890563 L207.574651,823.890563 C205.397344,823.890563 203.632041,825.259356 203.632041,826.947613 C203.632041,828.638202 205.397344,830 207.574651,830 L359.694443,830 C361.874757,830 363.637053,828.638202 363.637053,826.947613 C363.637053,825.259356 361.874757,823.890563 359.694443,823.890563 L308.608922,823.890563 L308.608922,814.654119 L381.356243,814.654119 C393.487814,814.654119 403,809.043697 403,801.889592 L403,681.762195 C403,674.603427 393.487814,669 381.356243,669 L184.640749,669 Z" id="Fill-1"></path>
        </g>
    </g>
</svg>