<?xml version="1.0" encoding="UTF-8" standalone="no"?>
<svg width="242px" height="307px" viewBox="0 0 242 307" version="1.1" xmlns="http://www.w3.org/2000/svg" xmlns:xlink="http://www.w3.org/1999/xlink">
    <!-- Generator: sketchtool 3.8.3 (29802) - http://www.bohemiancoding.com/sketch -->
    <title>15443F3A-9289-45FB-863F-D2F2CB020437</title>
    <desc>Created with sketchtool.</desc>
    <defs></defs>
    <g id="Landing-Page" stroke="none" stroke-width="1" fill="none" fill-rule="evenodd" opacity="0.25">
        <g id="Desktop-HD" transform="translate(-1027.000000, -226.000000)" fill="#FF7C7C">
            <g id="Group" transform="translate(1027.000000, 226.000000)">
                <path d="M230.671918,74.8456252 L12.5426127,74.8456252 C12.0493922,74.8456252 11.603793,74.9921865 11.1888075,75.2171411 L11.1888075,18.3479444 C11.1888075,15.2974241 13.3929928,12.8126986 16.1006031,12.8126986 L225.75332,12.8126986 C228.46093,12.8126986 230.671918,15.2974241 230.671918,18.3479444 L230.671918,74.8456252 Z M230.671918,288.838771 C230.671918,291.8927 228.46093,294.374017 225.75332,294.374017 L16.1006031,294.374017 C13.3929928,294.374017 11.1888075,291.8927 11.1888075,288.838771 L11.1888075,81.549953 C11.603793,81.7714992 12.0493922,81.9214689 12.5426127,81.9214689 L230.671918,81.9214689 L230.671918,288.838771 Z M225.75332,0.375437699 L16.1006031,0.375437699 C7.30427111,0.375437699 0.144070438,8.43630975 0.144070438,18.3479444 L0.144070438,288.838771 C0.144070438,298.753815 7.30427111,306.814687 16.1006031,306.814687 L225.75332,306.814687 C234.553053,306.814687 241.713254,298.753815 241.713254,288.838771 L241.713254,18.3479444 C241.713254,8.43630975 234.553053,0.375437699 225.75332,0.375437699 L225.75332,0.375437699 Z" id="Fill-14"></path>
                <path d="M30.630198,117.287395 C30.630198,113.170044 33.9738927,109.816176 38.086331,109.816176 L203.770993,109.816176 C207.883432,109.816176 211.223725,113.170044 211.223725,117.287395 L211.223725,264.608779 C211.223725,268.732946 207.883432,272.083405 203.770993,272.083405 L38.086331,272.083405 C33.9738927,272.083405 30.630198,268.732946 30.630198,264.608779 L30.630198,117.287395 Z M38.086331,279.336486 L203.770993,279.336486 C211.870014,279.336486 218.458759,272.724185 218.458759,264.608779 L218.458759,117.287395 C218.458759,109.16858 211.870014,102.566504 203.770993,102.566504 L38.086331,102.566504 C29.9873106,102.566504 23.3985654,109.16858 23.3985654,117.287395 L23.3985654,264.608779 C23.3985654,272.724185 29.9873106,279.336486 38.086331,279.336486 L38.086331,279.336486 Z" id="Fill-17"></path>
                <path d="M60.0543709,147.370637 L182.808443,147.370637 C185.539864,147.370637 187.750852,145.158584 187.750852,142.425045 C187.750852,139.688098 185.539864,137.476045 182.808443,137.476045 L60.0543709,137.476045 C57.3297529,137.476045 55.1187646,139.688098 55.1187646,142.425045 C55.1187646,145.158584 57.3297529,147.370637 60.0543709,147.370637" id="Fill-19"></path>
                <path d="M119.136061,52.6177279 C114.581425,52.6177279 110.883972,48.9162027 110.883972,44.3557601 C110.883972,39.7919091 114.581425,36.0801587 119.136061,36.0801587 C123.683894,36.0801587 127.384748,39.7919091 127.384748,44.3557601 C127.384748,48.9162027 123.683894,52.6177279 119.136061,52.6177279 M119.136061,32.7058402 C112.724195,32.7058402 107.509664,37.9309213 107.509664,44.3557601 C107.509664,50.7771905 112.724195,55.9988633 119.136061,55.9988633 C125.541124,55.9988633 130.752253,50.7771905 130.752253,44.3557601 C130.752253,37.9309213 125.541124,32.7058402 119.136061,32.7058402" id="Fill-21"></path>
                <path d="M146.524084,52.6177279 C141.976251,52.6177279 138.278798,48.9162027 138.278798,44.3557601 C138.278798,39.7919091 141.976251,36.0801587 146.524084,36.0801587 C151.07872,36.0801587 154.782975,39.7919091 154.782975,44.3557601 C154.782975,48.9162027 151.07872,52.6177279 146.524084,52.6177279 M146.524084,32.7058402 C140.122422,32.7058402 134.90449,37.9309213 134.90449,44.3557601 C134.90449,50.7771905 140.122422,55.9988633 146.524084,55.9988633 C152.93595,55.9988633 158.153882,50.7771905 158.153882,44.3557601 C158.153882,37.9309213 152.93595,32.7058402 146.524084,32.7058402" id="Fill-23"></path>
                <path d="M173.925712,52.6177279 C169.374478,52.6177279 165.673624,48.9162027 165.673624,44.3557601 C165.673624,39.7919091 169.374478,36.0801587 173.925712,36.0801587 C178.466742,36.0801587 182.1744,39.7919091 182.1744,44.3557601 C182.1744,48.9162027 178.466742,52.6177279 173.925712,52.6177279 M173.925712,32.7058402 C167.513846,32.7058402 162.299315,37.9309213 162.299315,44.3557601 C162.299315,50.7771905 167.513846,55.9988633 173.925712,55.9988633 C180.334177,55.9988633 185.545306,50.7771905 185.545306,44.3557601 C185.545306,37.9309213 180.334177,32.7058402 173.925712,32.7058402" id="Fill-25"></path>
                <path d="M201.320538,52.6177279 C196.772705,52.6177279 193.068449,48.9162027 193.068449,44.3557601 C193.068449,39.7919091 196.772705,36.0801587 201.320538,36.0801587 C205.864969,36.0801587 209.562422,39.7919091 209.562422,44.3557601 C209.562422,48.9162027 205.864969,52.6177279 201.320538,52.6177279 M201.320538,32.7058402 C194.908672,32.7058402 189.690739,37.9309213 189.690739,44.3557601 C189.690739,50.7771905 194.908672,55.9988633 201.320538,55.9988633 C207.732404,55.9988633 212.940132,50.7771905 212.940132,44.3557601 C212.940132,37.9309213 207.732404,32.7058402 201.320538,32.7058402" id="Fill-27"></path>
                <path d="M46.2788931,54.495076 C40.6969979,54.495076 36.1593696,49.9448586 36.1593696,44.3550784 C36.1593696,38.7584814 40.6969979,34.2116724 46.2788931,34.2116724 C51.8641898,34.2116724 56.4052197,38.7584814 56.4052197,44.3550784 C56.4052197,49.9448586 51.8641898,54.495076 46.2788931,54.495076 M46.2788931,30.0636465 C38.4213807,30.0636465 32.0197191,36.4748517 32.0197191,44.3550784 C32.0197191,52.2318968 38.4213807,58.643102 46.2788931,58.643102 C54.14661,58.643102 60.5414686,52.2318968 60.5414686,44.3550784 C60.5414686,36.4748517 54.14661,30.0636465 46.2788931,30.0636465" id="Fill-29"></path>
                <path d="M46.2788931,39.3999428 C43.5508737,39.3999428 41.3364838,41.6154045 41.3364838,44.3557601 C41.3364838,47.0961158 43.5508737,49.3013522 46.2788931,49.3013522 C49.0069126,49.3013522 51.2213024,47.0961158 51.2213024,44.3557601 C51.2213024,41.6154045 49.0069126,39.3999428 46.2788931,39.3999428" id="Fill-31"></path>
            </g>
        </g>
    </g>
</svg>